<svg xmlns="http://www.w3.org/2000/svg" xmlns:xlink="http://www.w3.org/1999/xlink" viewBox="0,0,256,256" width="24px" height="24px" fill-rule="nonzero"><g fill="#374152" fill-rule="nonzero" stroke="none" stroke-width="1" stroke-linecap="butt" stroke-linejoin="miter" stroke-miterlimit="10" stroke-dasharray="" stroke-dashoffset="0" font-family="none" font-weight="none" font-size="none" text-anchor="none" style="mix-blend-mode: normal"><g transform="scale(10.66667,10.66667)"><path d="M7,1c-0.552,0 -1,0.448 -1,1v1h-1c-1.1,0 -2,0.9 -2,2v14c0,1.1 0.9,2 2,2h14c1.1,0 2,-0.9 2,-2v-14c0,-1.1 -0.9,-2 -2,-2h-1v-1c0,-0.552 -0.448,-1 -1,-1c-0.552,0 -1,0.448 -1,1v1h-8v-1c0,-0.552 -0.448,-1 -1,-1zM5,8h14v10c0,0.552 -0.448,1 -1,1h-12c-0.552,0 -1,-0.448 -1,-1z"></path></g></g></svg>